# WaveFront *.obj file (generated by Autodesk ATF)

mtllib test_hex_D30H20.mtl

g Body1

v -14.200000 -8.198374 0.000000
v -14.200000 8.198374 0.000000
v -14.200000 8.198374 20.000000
v -14.200000 -8.198374 20.000000
v -0.000000 -16.396748 0.000000
v -0.000000 -16.396748 20.000000
v 14.200000 -8.198374 0.000000
v 14.200000 -8.198374 20.000000
v 14.200000 8.198374 0.000000
v 14.200000 8.198374 20.000000
v 0.000000 16.396748 0.000000
v 0.000000 16.396748 20.000000
v -0.000000 -17.320508 0.000000
v 15.000000 -8.660254 0.000000
v 15.000000 -8.660254 20.000000
v -0.000000 -17.320508 20.000000
v -15.000000 -8.660254 0.000000
v -15.000000 -8.660254 20.000000
v -15.000000 8.660254 0.000000
v -15.000000 8.660254 20.000000
v 0.000000 17.320508 0.000000
v 0.000000 17.320508 20.000000
v 15.000000 8.660254 0.000000
v 15.000000 8.660254 20.000000
vt 0.000000 0.000000 0.000000
vt 1.639675 0.000000 0.000000
vt 0.000000 2.000000 0.000000
vt 1.639675 2.000000 0.000000
vt 0.000000 0.000000 0.000000
vt 1.639675 0.000000 0.000000
vt 0.000000 2.000000 0.000000
vt 1.639675 2.000000 0.000000
vt -0.000000 0.000000 0.000000
vt 1.639675 0.000000 0.000000
vt 0.000000 2.000000 0.000000
vt 1.639675 2.000000 0.000000
vt -0.000000 0.000000 0.000000
vt 1.639675 0.000000 0.000000
vt -0.000000 2.000000 0.000000
vt 1.639675 2.000000 0.000000
vt 0.000000 0.000000 0.000000
vt 1.639675 0.000000 0.000000
vt 0.000000 2.000000 0.000000
vt 1.639675 2.000000 0.000000
vt 0.000000 0.000000 0.000000
vt 1.639675 0.000000 0.000000
vt 0.000000 2.000000 0.000000
vt 1.639675 2.000000 0.000000
vt 0.000000 0.000000 0.000000
vt 1.732051 0.000000 0.000000
vt -0.000000 2.000000 0.000000
vt 1.732051 2.000000 0.000000
vt 0.000000 0.000000 0.000000
vt 1.732051 0.000000 0.000000
vt 0.000000 2.000000 0.000000
vt 1.732051 2.000000 0.000000
vt 0.000000 0.000000 0.000000
vt 1.732051 0.000000 0.000000
vt 0.000000 2.000000 0.000000
vt 1.732051 2.000000 0.000000
vt 0.000000 0.000000 0.000000
vt 1.732051 0.000000 0.000000
vt -0.000000 2.000000 0.000000
vt 1.732051 2.000000 0.000000
vt 0.000000 0.000000 0.000000
vt 1.732051 0.000000 0.000000
vt -0.000000 2.000000 0.000000
vt 1.732051 2.000000 0.000000
vt 0.000000 0.000000 0.000000
vt 1.732051 0.000000 0.000000
vt -0.000000 2.000000 0.000000
vt 1.732051 2.000000 0.000000
vt 0.000000 1.639675 0.000000
vt 0.000000 1.732051 0.000000
vt -1.420000 0.819837 0.000000
vt -1.500000 0.866025 0.000000
vt -1.500000 -0.866025 0.000000
vt 1.420000 0.819837 0.000000
vt 1.500000 0.866025 0.000000
vt 1.500000 -0.866025 0.000000
vt 1.420000 -0.819837 0.000000
vt -0.000000 -1.732051 0.000000
vt -0.000000 -1.639675 0.000000
vt -1.420000 -0.819837 0.000000
vt -1.420000 0.819837 0.000000
vt -0.000000 1.639675 0.000000
vt -0.000000 1.732051 0.000000
vt 1.420000 0.819837 0.000000
vt 1.500000 0.866025 0.000000
vt 1.500000 -0.866025 0.000000
vt 1.420000 -0.819837 0.000000
vt 0.000000 -1.732051 0.000000
vt 0.000000 -1.639675 0.000000
vt -1.420000 -0.819837 0.000000
vt -1.500000 -0.866025 0.000000
vt -1.500000 0.866025 0.000000
vn 0.100000 -0.000000 0.000000
vn 0.100000 -0.000000 0.000000
vn 0.100000 -0.000000 0.000000
vn 0.100000 -0.000000 0.000000
vn 0.050000 0.086603 0.000000
vn 0.050000 0.086603 0.000000
vn 0.050000 0.086603 0.000000
vn 0.050000 0.086603 0.000000
vn -0.050000 0.086603 0.000000
vn -0.050000 0.086603 0.000000
vn -0.050000 0.086603 0.000000
vn -0.050000 0.086603 0.000000
vn -0.100000 0.000000 0.000000
vn -0.100000 0.000000 0.000000
vn -0.100000 0.000000 0.000000
vn -0.100000 0.000000 0.000000
vn -0.050000 -0.086603 0.000000
vn -0.050000 -0.086603 0.000000
vn -0.050000 -0.086603 0.000000
vn -0.050000 -0.086603 0.000000
vn 0.050000 -0.086603 0.000000
vn 0.050000 -0.086603 0.000000
vn 0.050000 -0.086603 0.000000
vn 0.050000 -0.086603 0.000000
vn 0.050000 -0.086603 0.000000
vn 0.050000 -0.086603 0.000000
vn 0.050000 -0.086603 0.000000
vn 0.050000 -0.086603 0.000000
vn -0.050000 -0.086603 0.000000
vn -0.050000 -0.086603 0.000000
vn -0.050000 -0.086603 0.000000
vn -0.050000 -0.086603 0.000000
vn -0.100000 0.000000 0.000000
vn -0.100000 0.000000 0.000000
vn -0.100000 0.000000 0.000000
vn -0.100000 0.000000 0.000000
vn -0.050000 0.086603 0.000000
vn -0.050000 0.086603 0.000000
vn -0.050000 0.086603 0.000000
vn -0.050000 0.086603 0.000000
vn 0.050000 0.086603 0.000000
vn 0.050000 0.086603 0.000000
vn 0.050000 0.086603 0.000000
vn 0.050000 0.086603 0.000000
vn 0.100000 -0.000000 0.000000
vn 0.100000 -0.000000 0.000000
vn 0.100000 -0.000000 0.000000
vn 0.100000 -0.000000 0.000000
vn 0.000000 0.000000 0.100000
vn 0.000000 0.000000 0.100000
vn 0.000000 0.000000 0.100000
vn 0.000000 0.000000 0.100000
vn 0.000000 0.000000 0.100000
vn 0.000000 0.000000 0.100000
vn 0.000000 0.000000 0.100000
vn 0.000000 0.000000 0.100000
vn 0.000000 0.000000 0.100000
vn 0.000000 0.000000 0.100000
vn 0.000000 0.000000 0.100000
vn 0.000000 0.000000 0.100000
vn 0.000000 0.000000 -0.100000
vn 0.000000 0.000000 -0.100000
vn 0.000000 0.000000 -0.100000
vn 0.000000 0.000000 -0.100000
vn 0.000000 0.000000 -0.100000
vn 0.000000 0.000000 -0.100000
vn 0.000000 0.000000 -0.100000
vn 0.000000 0.000000 -0.100000
vn 0.000000 0.000000 -0.100000
vn 0.000000 0.000000 -0.100000
vn 0.000000 0.000000 -0.100000
vn 0.000000 0.000000 -0.100000
usemtl Steel_-_Satin
f 1/1/1 2/2/2 4/3/3
f 4/3/3 2/2/2 3/4/4
f 5/5/5 1/6/6 6/7/7
f 6/7/7 1/6/6 4/8/8
f 7/9/9 5/10/10 8/11/11
f 8/11/11 5/10/10 6/12/12
f 9/13/13 7/14/14 10/15/15
f 10/15/15 7/14/14 8/16/16
f 11/17/17 9/18/18 12/19/19
f 12/19/19 9/18/18 10/20/20
f 2/21/21 11/22/22 3/23/23
f 3/23/23 11/22/22 12/24/24
f 13/25/25 14/26/26 16/27/27
f 16/27/27 14/26/26 15/28/28
f 17/29/29 13/30/30 18/31/31
f 18/31/31 13/30/30 16/32/32
f 19/33/33 17/34/34 20/35/35
f 20/35/35 17/34/34 18/36/36
f 21/37/37 19/38/38 22/39/39
f 22/39/39 19/38/38 20/40/40
f 23/41/41 21/42/42 24/43/43
f 24/43/43 21/42/42 22/44/44
f 14/45/45 23/46/46 15/47/47
f 15/47/47 23/46/46 24/48/48
f 12/49/49 22/50/50 3/51/51
f 3/51/51 22/50/50 20/52/52
f 3/51/51 20/52/52 18/53/53
f 12/49/49 10/54/54 22/50/50
f 22/50/50 10/54/54 24/55/55
f 24/55/55 10/54/54 15/56/56
f 15/56/56 10/54/54 8/57/57
f 15/56/56 8/57/57 16/58/58
f 16/58/58 8/57/57 6/59/59
f 16/58/58 6/59/59 4/60/60
f 16/58/58 4/60/60 18/53/53
f 18/53/53 4/60/60 3/51/51
f 9/61/61 11/62/62 21/63/63
f 21/63/63 11/62/62 2/64/64
f 21/63/63 2/64/64 19/65/65
f 19/65/65 2/64/64 17/66/66
f 17/66/66 2/64/64 1/67/67
f 17/66/66 1/67/67 13/68/68
f 13/68/68 1/67/67 5/69/69
f 13/68/68 5/69/69 7/70/70
f 13/68/68 7/70/70 14/71/71
f 14/71/71 7/70/70 9/61/61
f 14/71/71 9/61/61 23/72/72
f 23/72/72 9/61/61 21/63/63
# 24 vertices
# 72 texture params
# 72 normals
# 48 facets

# 1 groups
